HIERARCHY
ROOT SpineBase
{
  OFFSET 0.000000 0.000000 0.000000
  CHANNELS 6 Xposition Yposition Zposition Zrotation Xrotation Yrotation
  JOINT SpineMid
  {
    OFFSET 0.000000 35.402395 0.000000
    CHANNELS 3 Zrotation Xrotation Yrotation
    JOINT SpineShoulder
    {
      OFFSET 2.224624 26.077137 -2.522468
      CHANNELS 3 Zrotation Xrotation Yrotation
      JOINT Neck
      {
        OFFSET 0.621264 8.609414 -0.946191
        CHANNELS 3 Zrotation Xrotation Yrotation
        JOINT Head
        {
          OFFSET 1.757174 13.365685 7.367573
          CHANNELS 3 Zrotation Xrotation Yrotation
          End Site
          {
            OFFSET 0 0 0
          }
        }
      }
      JOINT ShoulderLeft
      {
        OFFSET 0.501065 -7.021545 -13.258305
        CHANNELS 3 Zrotation Xrotation Yrotation
        JOINT ElbowLeft
        {
          OFFSET 4.241667 -29.886289 -6.238732
          CHANNELS 3 Zrotation Xrotation Yrotation
          JOINT WristLeft
          {
            OFFSET 9.031355 -22.633867 0.031581
            CHANNELS 3 Zrotation Xrotation Yrotation
            JOINT HandLeft
            {
              OFFSET 1.042759 -6.346560 3.141964
              CHANNELS 3 Zrotation Xrotation Yrotation
              JOINT HandTipLeft
              {
                OFFSET 2.292842 -6.896766 2.956819
                CHANNELS 3 Zrotation Xrotation Yrotation
                End Site
                {
                  OFFSET 0 0 0
                }
              }
              JOINT ThumbLeft
              {
                OFFSET 5.175482 4.046426 -2.004125
                CHANNELS 3 Zrotation Xrotation Yrotation
                End Site
                {
                  OFFSET 0 0 0
                }
              }
            }
          }
        }
      }
      JOINT ShoulderRight
      {
        OFFSET 10.458651 -12.612217 -15.142508
        CHANNELS 3 Zrotation Xrotation Yrotation
        JOINT ElbowRight
        {
          OFFSET 2.875793 -29.669615 -4.379288
          CHANNELS 3 Zrotation Xrotation Yrotation
          JOINT WristRight
          {
            OFFSET -2.221935 -23.627539 -4.302604
            CHANNELS 3 Zrotation Xrotation Yrotation
            JOINT HandRight
            {
              OFFSET 3.587129 -0.686062 6.174761
              CHANNELS 3 Zrotation Xrotation Yrotation
              JOINT HandTipRight
              {
                OFFSET -0.441636 -2.580658 -0.298127
                CHANNELS 3 Zrotation Xrotation Yrotation
                End Site
                {
                  OFFSET 0 0 0
                }
              }
              JOINT ThumbRight
              {
                OFFSET -1.255909 0.663104 -2.528083
                CHANNELS 3 Zrotation Xrotation Yrotation
                End Site
                {
                  OFFSET 0 0 0
                }
              }
            }
          }
        }
      }
    }
  }
  JOINT HipLeft
  {
    OFFSET -4.492808 0.896748 -7.780633
    CHANNELS 3 Zrotation Xrotation Yrotation
    JOINT KneeLeft
    {
      OFFSET 7.800288 -39.696117 6.789653
      CHANNELS 3 Zrotation Xrotation Yrotation
      JOINT AnkleLeft
      {
        OFFSET -17.933822 -32.413890 14.869979
        CHANNELS 3 Zrotation Xrotation Yrotation
        JOINT FootLeft
        {
          OFFSET 2.681593 -8.914792 0.634435
          CHANNELS 3 Zrotation Xrotation Yrotation
          End Site
          {
            OFFSET 0 0 0
          }
        }
      }
    }
  }
  JOINT HipRight
  {
    OFFSET 5.149823 0.043283 -0.582851
    CHANNELS 3 Zrotation Xrotation Yrotation
    JOINT KneeRight
    {
      OFFSET -22.464766 -31.712564 11.274690
      CHANNELS 3 Zrotation Xrotation Yrotation
      JOINT AnkleRight
      {
        OFFSET 17.500804 -41.946237 -6.612660
        CHANNELS 3 Zrotation Xrotation Yrotation
        JOINT FootRight
        {
          OFFSET -1.810386 -6.787007 -7.727587
          CHANNELS 3 Zrotation Xrotation Yrotation
          End Site
          {
            OFFSET 0 0 0
          }
        }
      }
    }
  }
}
MOTION
Frames: 10
Frame Time: 0.033333
-19.856361 83.581273 316.797734 -0.000000 0.000000 -36.739652 0.000000 -0.000000 36.739652 -0.000000 0.000000 0.000000 -0.000000 0.000000 0.000000 0.000000 0.000000 0.000000 -0.000000 0.000000 0.000000 -0.000000 0.000000 0.000000 -0.000000 0.000000 0.000000 -0.000000 0.000000 0.000000 0.000000 0.000000 0.000000 0.000000 0.000000 0.000000 -0.000000 0.000000 0.000000 -0.000000 0.000000 0.000000 -0.000000 0.000000 0.000000 -0.000000 0.000000 0.000000 0.000000 0.000000 0.000000 0.000000 0.000000 0.000000 0.000000 -0.000000 36.739652 -0.000000 0.000000 0.000000 -0.000000 0.000000 0.000000 0.000000 0.000000 0.000000 0.000000 -0.000000 36.739652 -0.000000 0.000000 0.000000 -0.000000 0.000000 0.000000 0.000000 0.000000 0.000000
-20.794874 83.542619 316.834742 -1.317090 -0.095552 -34.975957 0.873029 1.709019 34.938657 0.318125 -0.193788 0.067979 -0.696221 -0.610083 -0.036162 0.000000 0.000000 0.000000 -1.156156 -1.779087 -0.116085 -0.087413 -1.081050 -0.834382 -7.408327 -0.495108 -3.367047 6.547946 1.739155 3.197884 0.000000 0.000000 0.000000 0.000000 0.000000 0.000000 -1.955735 0.361144 0.241124 1.255526 -0.976432 -0.269324 0.215155 -3.147920 -11.512015 13.713893 21.778116 3.526816 0.000000 0.000000 0.000000 0.000000 0.000000 0.000000 0.436374 -1.830209 34.255506 5.387725 3.755615 1.064837 6.633608 15.858141 4.164027 0.000000 0.000000 0.000000 1.395881 2.218946 34.691651 -5.573580 -2.590745 0.139228 4.592653 9.823772 -2.216133 0.000000 0.000000 0.000000
-21.652866 83.528039 316.869113 -2.430972 -0.203011 -33.492552 1.687254 3.109492 33.414427 0.557187 -0.377580 0.128221 -1.249427 -1.080278 -0.071014 0.000000 0.000000 0.000000 -2.042266 -3.243137 -0.244061 -0.117168 -1.910489 -1.502367 -13.340881 -0.326733 -5.696913 11.395357 3.516976 5.527576 0.000000 0.000000 0.000000 0.000000 0.000000 0.000000 -3.445904 0.573589 0.403771 2.185300 -1.668883 -0.452667 -0.265755 -4.393530 -18.869538 65.824815 53.101474 -36.752404 0.000000 0.000000 0.000000 0.000000 0.000000 0.000000 0.746064 -3.169348 32.195155 9.888879 6.905321 1.656362 10.545168 27.156825 5.584543 0.000000 0.000000 0.000000 2.835367 4.260041 32.951832 -10.747137 -4.913504 -0.013678 8.855395 17.060649 -3.930414 0.000000 0.000000 0.000000
-22.430334 83.537532 316.900848 -3.344605 -0.322478 -32.230154 2.406614 4.222361 32.109786 0.717934 -0.552448 0.177769 -1.660619 -1.411813 -0.100855 0.000000 0.000000 0.000000 -2.653789 -4.385447 -0.369220 -0.069106 -2.473731 -1.987877 -17.664467 0.294500 -7.038969 14.471446 4.975752 7.138266 0.000000 0.000000 0.000000 0.000000 0.000000 0.000000 -4.485667 0.651275 0.497398 2.808026 -2.086742 -0.565859 -0.951076 -4.117959 -23.216520 113.910727 48.842821 -79.893922 0.000000 0.000000 0.000000 0.000000 0.000000 0.000000 1.012714 -3.982416 30.521047 13.382231 9.287115 1.937597 12.875015 34.528309 5.720417 0.000000 0.000000 0.000000 4.287776 6.106496 31.476195 -15.438735 -6.870495 -0.381693 12.581314 22.324173 -5.259676 0.000000 0.000000 0.000000
-23.127281 83.571097 316.929946 -4.060685 -0.454160 -31.143946 3.005897 5.064523 30.983067 0.800799 -0.719373 0.214336 -0.958483 -1.278240 -0.676782 0.000000 0.000000 0.000000 -2.986412 -5.200845 -0.480753 0.070466 -2.763243 -2.280978 -20.448498 1.235421 -7.541599 15.878292 5.946557 8.186916 0.000000 0.000000 0.000000 0.000000 0.000000 0.000000 -5.083869 0.600871 0.528782 3.134141 -2.234448 -0.618324 -1.721393 -2.540173 -25.287178 123.497001 45.233297 -86.079804 0.000000 0.000000 0.000000 0.000000 0.000000 0.000000 1.300526 -4.248286 29.206643 15.761784 10.800176 2.060769 14.504184 39.524138 5.334469 0.000000 0.000000 0.000000 5.723014 7.733593 30.237525 -19.581246 -8.392140 -0.878166 15.644179 26.068964 -6.249198 0.000000 0.000000 0.000000
-23.743705 83.628736 316.956408 -4.581334 -0.598377 -30.199764 3.466866 5.649208 30.003527 0.805806 -0.879229 0.236255 -0.714334 -1.302421 -0.888906 0.000000 0.000000 0.000000 -3.036546 -5.685154 -0.572036 0.308488 -2.775650 -2.377417 -21.759047 2.473883 -7.320943 15.700146 6.329453 8.727531 0.000000 0.000000 0.000000 0.000000 0.000000 0.000000 -5.242071 0.422013 0.501729 3.165793 -2.110626 -0.613684 -2.642926 0.343032 -25.373266 119.807256 47.050257 -78.030048 0.000000 0.000000 0.000000 0.000000 0.000000 0.000000 1.657105 -3.950377 28.230388 16.953075 11.393572 2.138770 15.968135 43.240168 4.734730 0.000000 0.000000 0.000000 7.107889 9.112679 29.220561 -23.116458 -9.435008 -1.417638 17.964770 28.604234 -6.907463 0.000000 0.000000 0.000000
-24.629202 83.763871 316.936438 -5.260722 -0.703176 -28.973306 3.944242 5.906062 28.730787 0.709199 -1.065642 0.234861 0.387896 -1.133684 -1.286229 0.000000 0.000000 0.000000 -2.641913 -5.594089 -0.565405 1.090198 -2.247053 -2.168891 -22.307948 5.215103 -6.391039 13.266478 7.105478 9.577869 0.000000 0.000000 0.000000 0.000000 0.000000 0.000000 -4.776393 0.214660 0.470715 3.010015 -1.730592 -0.566484 -4.479608 6.243907 -23.985937 86.175613 53.678659 -40.911486 0.000000 0.000000 0.000000 0.000000 0.000000 0.000000 3.653361 -1.498725 27.612884 14.373028 9.693013 2.103651 19.175350 47.981080 3.718220 0.000000 0.000000 0.000000 9.839452 10.668989 28.365320 -28.784019 -10.628584 -2.988760 21.229052 34.142637 -7.896639 0.000000 0.000000 0.000000
-25.260061 83.893157 316.956721 -5.565078 -0.890626 -28.036752 4.091408 5.907988 27.765888 0.553379 -1.232625 0.218782 1.921050 -0.782333 -1.890621 0.000000 0.000000 0.000000 -1.744538 -5.175296 -0.594503 1.506179 -1.342242 -1.672792 -19.125212 8.044844 -4.178599 8.526224 5.405946 7.994265 0.000000 0.000000 0.000000 0.000000 0.000000 0.000000 -3.980548 -0.072261 0.385366 2.606590 -1.120547 -0.467566 -11.018200 21.680422 -14.078783 55.536114 24.550194 4.372558 0.000000 0.000000 0.000000 0.000000 0.000000 0.000000 6.015502 2.364705 27.613073 9.062076 5.996962 1.782859 23.103559 52.078865 2.514673 0.000000 0.000000 0.000000 11.368295 11.554686 27.594310 -32.011348 -11.161533 -3.865565 22.463623 31.632146 -6.939182 0.000000 0.000000 0.000000
-25.532327 83.987401 317.026198 -5.392837 -1.148072 -27.516755 3.947489 5.790949 27.246745 0.442433 -1.384542 0.210543 2.523672 -0.403567 -2.163293 0.000000 0.000000 0.000000 -0.846097 -4.696245 -0.704521 1.484224 -0.723006 -1.242085 -13.789056 11.112417 -1.164108 2.541135 2.235209 4.301908 0.000000 0.000000 0.000000 0.000000 0.000000 0.000000 -3.141808 -0.531549 0.202213 1.925644 -0.262865 -0.304922 -16.539342 28.494256 -3.158048 47.376064 -6.333664 14.140131 0.000000 0.000000 0.000000 0.000000 0.000000 0.000000 5.720334 3.341695 27.294270 8.901001 5.045546 1.871190 23.054297 52.904156 2.213705 0.000000 0.000000 0.000000 12.461594 12.193507 27.386807 -32.359086 -9.837461 -3.716117 20.994949 30.479046 -6.427608 0.000000 0.000000 0.000000
-25.358367 84.044732 317.114345 -4.714997 -1.415200 -27.592081 3.562718 5.600368 27.361843 0.252614 -1.521100 0.197449 2.361656 -0.228886 -2.132972 0.000000 0.000000 0.000000 -0.006487 -4.208426 -0.879954 1.272111 -0.124824 -0.790492 -7.946011 13.052806 1.496533 -3.156791 -0.704375 0.011594 0.000000 0.000000 0.000000 0.000000 0.000000 0.000000 -2.410021 -1.013278 -0.025144 1.130607 0.629500 -0.111882 -19.029078 28.975958 5.934714 45.029613 -19.092524 10.816714 0.000000 0.000000 0.000000 0.000000 0.000000 0.000000 3.529398 3.433327 27.428004 10.520103 4.320644 2.200012 23.395634 54.025971 1.739670 0.000000 0.000000 0.000000 11.241411 11.660132 27.512945 -28.095643 -7.201513 -2.069264 17.129138 27.608414 -5.934941 0.000000 0.000000 0.000000
